<svg width="224" height="81" viewBox="0 0 224 81" fill="none" xmlns="http://www.w3.org/2000/svg">
<rect y="0.5" width="223.81" height="80" rx="6" fill="black"/>
<path fill-rule="evenodd" clip-rule="evenodd" d="M56.2113 40.1763C56.1678 35.3418 60.1762 32.9898 60.3595 32.8803C58.0894 29.5758 54.5707 29.1243 53.3342 29.0883C50.3789 28.7778 47.5123 30.8538 46.0069 30.8538C44.4714 30.8538 42.1532 29.1183 39.6546 29.1693C36.4394 29.2188 33.4316 31.0773 31.7819 33.9633C28.3774 39.8478 30.9165 48.4953 34.1783 53.2518C35.8099 55.5813 37.7165 58.1823 40.212 58.0908C42.6535 57.9903 43.5654 56.5368 46.5117 56.5368C49.4309 56.5368 50.2873 58.0908 52.8324 58.0323C55.4526 57.9903 57.1023 55.6923 58.6768 53.3418C60.5624 50.6718 61.3196 48.0423 61.3496 47.9073C61.288 47.8863 56.2609 45.9708 56.2113 40.1763Z" fill="white"/>
<path fill-rule="evenodd" clip-rule="evenodd" d="M51.4035 25.9592C52.7166 24.3197 53.6151 22.0892 53.3657 19.8257C51.4651 19.9097 49.0883 21.1382 47.7196 22.7417C46.5086 24.1547 45.4269 26.4707 45.7063 28.6487C47.8413 28.8077 50.0333 27.5732 51.4035 25.9592Z" fill="white"/>
<path fill-rule="evenodd" clip-rule="evenodd" d="M194.366 49.878C194.366 50.451 194.328 50.934 194.248 51.3285H184.639C184.676 52.7505 185.141 53.838 186.033 54.588C186.843 55.2585 187.89 55.5945 189.176 55.5945C190.599 55.5945 191.897 55.368 193.064 54.9135L193.566 57.1335C192.202 57.7275 190.591 58.023 188.733 58.023C186.497 58.023 184.743 57.366 183.465 56.0535C182.191 54.741 181.553 52.9785 181.553 50.7675C181.553 48.5971 182.146 46.7896 183.335 45.3481C184.579 43.8091 186.26 43.0396 188.375 43.0396C190.453 43.0396 192.026 43.8091 193.095 45.3481C193.94 46.5706 194.366 48.0826 194.366 49.878ZM191.311 49.0485C191.332 48.1005 191.123 47.2815 190.689 46.59C190.135 45.7005 189.283 45.2565 188.136 45.2565C187.089 45.2565 186.237 45.69 185.587 46.56C185.054 47.2515 184.736 48.081 184.639 49.047H191.311V49.0485Z" fill="white"/>
<path fill-rule="evenodd" clip-rule="evenodd" d="M180.04 46.1744C179.723 46.1159 179.385 46.0859 179.03 46.0859C177.903 46.0859 177.032 46.5104 176.419 47.3609C175.886 48.1109 175.618 49.0589 175.618 50.2034V57.7559H172.417L172.447 47.8949C172.447 46.2359 172.406 44.7254 172.326 43.3634H175.116L175.234 46.1174H175.322C175.66 45.1709 176.194 44.4089 176.924 43.8374C177.637 43.3229 178.408 43.0664 179.239 43.0664C179.535 43.0664 179.802 43.0874 180.04 43.1249V46.1744Z" fill="white"/>
<path fill-rule="evenodd" clip-rule="evenodd" d="M169.628 50.4404C169.628 52.6529 168.994 54.4694 167.729 55.8899C166.402 57.3524 164.641 58.0814 162.446 58.0814C160.331 58.0814 158.647 57.3809 157.391 55.9799C156.135 54.5789 155.507 52.8104 155.507 50.6789C155.507 48.4484 156.153 46.6214 157.449 45.2009C158.743 43.7789 160.489 43.0679 162.684 43.0679C164.799 43.0679 166.501 43.7684 167.786 45.1709C169.015 46.5314 169.628 48.2879 169.628 50.4404ZM166.305 50.5439C166.305 49.2164 166.021 48.0779 165.445 47.1284C164.774 45.9794 163.814 45.4064 162.57 45.4064C161.282 45.4064 160.304 45.9809 159.632 47.1284C159.057 48.0794 158.773 49.2359 158.773 50.6039C158.773 51.9314 159.057 53.0699 159.632 54.0179C160.325 55.1669 161.293 55.7399 162.541 55.7399C163.764 55.7399 164.724 55.1549 165.417 53.9879C166.007 53.0204 166.305 51.8699 166.305 50.5439Z" fill="white"/>
<path fill-rule="evenodd" clip-rule="evenodd" d="M153.698 45.7619H150.167V52.7504C150.167 54.5279 150.789 55.4159 152.036 55.4159C152.609 55.4159 153.083 55.3664 153.459 55.2674L153.548 57.6959C152.917 57.9314 152.086 58.0499 151.057 58.0499C149.792 58.0499 148.803 57.6644 148.089 56.8949C147.379 56.1239 147.021 54.8309 147.021 53.0144V45.7589H144.918V43.3589H147.021V40.7234L150.167 39.7754V43.3589H153.698V45.7619Z" fill="white"/>
<path fill-rule="evenodd" clip-rule="evenodd" d="M143.107 52.158C143.107 53.856 142.517 55.2375 141.331 56.304C140.029 57.4695 138.215 58.0515 135.885 58.0515C133.734 58.0515 132.009 57.6375 130.703 56.808L131.445 54.1425C132.852 54.9915 134.395 55.4175 136.076 55.4175C137.282 55.4175 138.221 55.1445 138.896 54.6015C139.568 54.0585 139.903 53.3295 139.903 52.4205C139.903 51.6105 139.626 50.928 139.072 50.3745C138.52 49.821 137.599 49.3065 136.313 48.831C132.813 47.5275 131.064 45.618 131.064 43.107C131.064 41.466 131.677 40.1205 132.904 39.0735C134.127 38.025 135.759 37.5015 137.799 37.5015C139.619 37.5015 141.13 37.818 142.337 38.4495L141.536 41.0565C140.409 40.4445 139.135 40.1385 137.709 40.1385C136.582 40.1385 135.702 40.416 135.071 40.968C134.537 41.4615 134.27 42.063 134.27 42.7755C134.27 43.5645 134.575 44.217 135.188 44.73C135.721 45.204 136.69 45.717 138.097 46.2705C139.817 46.962 141.08 47.7705 141.893 48.6975C142.703 49.6215 143.107 50.778 143.107 52.158Z" fill="white"/>
<path fill-rule="evenodd" clip-rule="evenodd" d="M124.567 50.3819C124.567 52.8299 123.905 54.7649 122.578 56.1854C121.393 57.4499 119.919 58.0814 118.16 58.0814C116.26 58.0814 114.896 57.4004 114.067 56.0384H114.007V63.6209H110.804V48.1004C110.804 46.5614 110.763 44.9819 110.685 43.3619H113.502L113.681 45.6434H113.741C114.808 43.9244 116.429 43.0664 118.606 43.0664C120.305 43.0664 121.725 43.7369 122.864 45.0794C123.998 46.4234 124.567 48.1904 124.567 50.3819ZM121.304 50.4989C121.304 49.0979 120.987 47.9429 120.353 47.0339C119.66 46.0859 118.733 45.6119 117.566 45.6119C116.774 45.6119 116.058 45.8759 115.415 46.3964C114.772 46.9214 114.352 47.6069 114.156 48.4559C114.058 48.8519 114.007 49.1759 114.007 49.4309V51.8309C114.007 52.8779 114.328 53.7614 114.968 54.4829C115.611 55.2029 116.447 55.5644 117.477 55.5644C118.684 55.5644 119.623 55.0994 120.294 54.1724C120.968 53.2439 121.304 52.0199 121.304 50.4989Z" fill="white"/>
<path fill-rule="evenodd" clip-rule="evenodd" d="M107.985 50.3819C107.985 52.8299 107.323 54.7649 105.997 56.1854C104.81 57.4499 103.337 58.0814 101.577 58.0814C99.6782 58.0814 98.314 57.4004 97.4832 56.0384H97.4231V63.6209H94.2199V48.1004C94.2199 46.5614 94.1793 44.9819 94.1012 43.3619H96.9182L97.097 45.6434H97.1571C98.2254 43.9244 99.8465 43.0664 102.022 43.0664C103.723 43.0664 105.143 43.7369 106.278 45.0794C107.417 46.4234 107.985 48.1904 107.985 50.3819ZM104.722 50.4989C104.722 49.0979 104.406 47.9429 103.772 47.0339C103.08 46.0859 102.15 45.6119 100.984 45.6119C100.194 45.6119 99.4754 45.8759 98.8338 46.3964C98.1908 46.9214 97.7701 47.6069 97.5733 48.4559C97.4741 48.8519 97.4246 49.1759 97.4246 49.4309V51.8309C97.4246 52.8779 97.7461 53.7614 98.3891 54.4829C99.0322 55.2044 99.8675 55.5644 100.895 55.5644C102.102 55.5644 103.041 55.0994 103.712 54.1724C104.385 53.2439 104.722 52.0199 104.722 50.4989Z" fill="white"/>
<path fill-rule="evenodd" clip-rule="evenodd" d="M91.4329 57.7559H88.0208L86.1518 51.8924H79.6553L77.875 57.7559H74.5531L80.9895 37.7939H84.9649L91.4329 57.7559ZM85.5884 49.4324L83.8982 44.2199C83.7194 43.6874 83.3844 42.4334 82.8901 40.4594H82.83C82.6332 41.3084 82.3161 42.5624 81.8804 44.2199L80.2203 49.4324H85.5884Z" fill="white"/>
<path fill-rule="evenodd" clip-rule="evenodd" d="M193.436 26.7794C193.436 27.0614 193.415 27.2984 193.377 27.4919H188.655C188.676 28.1909 188.901 28.7234 189.338 29.0924C189.738 29.4224 190.253 29.5874 190.884 29.5874C191.583 29.5874 192.22 29.4764 192.794 29.2529L193.04 30.3449C192.369 30.6359 191.579 30.7814 190.664 30.7814C189.567 30.7814 188.703 30.4589 188.078 29.8139C187.45 29.1689 187.139 28.3034 187.139 27.2174C187.139 26.1509 187.429 25.2629 188.013 24.5549C188.623 23.7989 189.448 23.4209 190.489 23.4209C191.508 23.4209 192.282 23.7989 192.805 24.5549C193.227 25.1549 193.436 25.8974 193.436 26.7794ZM191.933 26.3729C191.945 25.9064 191.842 25.5044 191.628 25.1654C191.355 24.7289 190.939 24.5099 190.375 24.5099C189.861 24.5099 189.442 24.7229 189.122 25.1504C188.861 25.4909 188.706 25.8974 188.655 26.3729H191.933Z" fill="white"/>
<path fill-rule="evenodd" clip-rule="evenodd" d="M184.837 30.6495H183.261V26.6295C183.261 25.362 182.786 24.7275 181.835 24.7275C181.105 24.7275 180.606 25.095 180.333 25.83C180.286 25.9845 180.259 26.1735 180.259 26.3955V30.648H178.686V20.334H180.259V24.5955H180.289C180.785 23.82 181.496 23.433 182.417 23.433C183.069 23.433 183.608 23.646 184.036 24.0735C184.57 24.606 184.837 25.398 184.837 26.445V30.6495Z" fill="white"/>
<path fill-rule="evenodd" clip-rule="evenodd" d="M176.502 24.7559H174.768V28.1909C174.768 29.0639 175.076 29.5004 175.686 29.5004C175.968 29.5004 176.203 29.4764 176.388 29.4269L176.428 30.6194C176.117 30.7364 175.708 30.7949 175.205 30.7949C174.583 30.7949 174.099 30.6059 173.749 30.2279C173.398 29.8499 173.223 29.2139 173.223 28.3214V24.7559H172.188V23.5784H173.223V22.2824L174.766 21.8174V23.5769H176.5V24.7559H176.502Z" fill="white"/>
<path fill-rule="evenodd" clip-rule="evenodd" d="M165.905 30.6497H164.332V26.5997C164.332 25.3517 163.857 24.7277 162.903 24.7277C162.436 24.7277 162.059 24.8987 161.767 25.2422C161.476 25.5857 161.33 25.9907 161.33 26.4542V30.6482H159.754V25.5992C159.754 24.9782 159.736 24.3047 159.699 23.5757H161.081L161.154 24.6812H161.198C161.383 24.3377 161.656 24.0542 162.014 23.8277C162.442 23.5637 162.918 23.4302 163.443 23.4302C164.102 23.4302 164.652 23.6432 165.089 24.0707C165.635 24.5942 165.905 25.3757 165.905 26.4137V30.6497Z" fill="white"/>
<path fill-rule="evenodd" clip-rule="evenodd" d="M157.439 27.0556C157.439 28.1431 157.128 29.0341 156.506 29.7331C155.854 30.4516 154.992 30.8101 153.911 30.8101C152.873 30.8101 152.045 30.4666 151.426 29.7766C150.81 29.0881 150.502 28.2196 150.502 27.1726C150.502 26.0776 150.819 25.1791 151.456 24.4816C152.093 23.7841 152.95 23.4346 154.03 23.4346C155.068 23.4346 155.905 23.7781 156.536 24.4666C157.137 25.1356 157.439 25.9996 157.439 27.0556ZM155.807 27.1066C155.807 26.4541 155.666 25.8946 155.385 25.4281C155.053 24.8641 154.584 24.5821 153.971 24.5821C153.34 24.5821 152.86 24.8641 152.528 25.4281C152.245 25.8946 152.105 26.4631 152.105 27.1351C152.105 27.7876 152.247 28.3471 152.528 28.8136C152.869 29.3776 153.343 29.6596 153.956 29.6596C154.557 29.6596 155.031 29.3731 155.37 28.7986C155.66 28.3231 155.807 27.7591 155.807 27.1066Z" fill="white"/>
<path fill-rule="evenodd" clip-rule="evenodd" d="M143.973 30.6495H142.575L142.502 29.514H142.458C142.012 30.378 141.252 30.81 140.184 30.81C139.33 30.81 138.62 30.4755 138.056 29.8065C137.493 29.1375 137.212 28.269 137.212 27.2025C137.212 26.058 137.517 25.131 138.13 24.423C138.723 23.763 139.45 23.433 140.316 23.433C141.267 23.433 141.932 23.7525 142.311 24.393H142.341V20.334H143.917V28.7445C143.917 29.433 143.935 30.0675 143.973 30.6495ZM142.341 27.6675V26.4885C142.341 26.2845 142.326 26.1195 142.298 25.9935C142.209 25.6155 142.018 25.2975 141.728 25.041C141.435 24.7845 141.082 24.6555 140.675 24.6555C140.087 24.6555 139.628 24.888 139.29 25.3545C138.955 25.821 138.785 26.4165 138.785 27.144C138.785 27.843 138.946 28.41 139.269 28.8465C139.61 29.3115 140.069 29.544 140.645 29.544C141.162 29.544 141.575 29.3505 141.889 28.962C142.192 28.6035 142.341 28.1715 142.341 27.6675Z" fill="white"/>
<path fill-rule="evenodd" clip-rule="evenodd" d="M135.026 30.6496H133.612L133.495 29.8351H133.451C132.967 30.4846 132.278 30.8101 131.382 30.8101C130.714 30.8101 130.173 30.5956 129.766 30.1696C129.396 29.7826 129.211 29.3011 129.211 28.7296C129.211 27.8656 129.572 27.2071 130.298 26.7511C131.022 26.2951 132.04 26.0716 133.352 26.0821V25.9501C133.352 25.0186 132.862 24.5536 131.881 24.5536C131.183 24.5536 130.567 24.7291 130.035 25.0771L129.715 24.0451C130.373 23.6386 131.186 23.4346 132.144 23.4346C133.995 23.4346 134.924 24.4096 134.924 26.3596V28.9636C134.924 29.6701 134.958 30.2326 135.026 30.6496ZM133.391 28.2196V27.1291C131.654 27.0991 130.786 27.5746 130.786 28.5541C130.786 28.9231 130.885 29.1991 131.088 29.3836C131.291 29.5681 131.549 29.6596 131.857 29.6596C132.203 29.6596 132.526 29.5501 132.82 29.3326C133.116 29.1136 133.298 28.8361 133.366 28.4956C133.382 28.4191 133.391 28.3261 133.391 28.2196Z" fill="white"/>
<path fill-rule="evenodd" clip-rule="evenodd" d="M127.405 27.0556C127.405 28.1431 127.094 29.0341 126.472 29.7331C125.82 30.4516 124.955 30.8101 123.878 30.8101C122.837 30.8101 122.009 30.4666 121.393 29.7766C120.777 29.0881 120.469 28.2196 120.469 27.1726C120.469 26.0776 120.786 25.1791 121.423 24.4816C122.06 23.7841 122.916 23.4346 123.993 23.4346C125.035 23.4346 125.868 23.7781 126.502 24.4666C127.103 25.1356 127.405 25.9996 127.405 27.0556ZM125.771 27.1066C125.771 26.4541 125.63 25.8946 125.349 25.4281C125.02 24.8641 124.548 24.5821 123.938 24.5821C123.304 24.5821 122.823 24.8641 122.494 25.4281C122.212 25.8946 122.072 26.4631 122.072 27.1351C122.072 27.7876 122.213 28.3471 122.494 28.8136C122.835 29.3776 123.31 29.6596 123.923 29.6596C124.524 29.6596 124.994 29.3731 125.334 28.7986C125.627 28.3231 125.771 27.7591 125.771 27.1066Z" fill="white"/>
<path fill-rule="evenodd" clip-rule="evenodd" d="M118.136 30.6495H116.562V20.334H118.136V30.6495Z" fill="white"/>
<path fill-rule="evenodd" clip-rule="evenodd" d="M113.793 30.6497H112.219V26.5997C112.219 25.3517 111.744 24.7277 110.792 24.7277C110.324 24.7277 109.947 24.8987 109.654 25.2422C109.364 25.5857 109.217 25.9907 109.217 26.4542V30.6482H107.643V25.5992C107.643 24.9782 107.623 24.3047 107.585 23.5757H108.969L109.043 24.6812H109.086C109.27 24.3377 109.543 24.0542 109.902 23.8277C110.329 23.5637 110.807 23.4302 111.329 23.4302C111.991 23.4302 112.54 23.6432 112.978 24.0707C113.522 24.5942 113.793 25.3757 113.793 26.4137V30.6497Z" fill="white"/>
<path fill-rule="evenodd" clip-rule="evenodd" d="M105.631 23.5786L103.415 30.6496H101.972L101.054 27.5791C100.822 26.8126 100.632 26.0506 100.485 25.2946H100.456C100.32 26.0716 100.13 26.8321 99.8871 27.5791L98.912 30.6496H97.4531L95.3693 23.5786H96.9874L97.7882 26.9401C97.982 27.7351 98.1412 28.4926 98.2689 29.2096H98.2975C98.4147 28.6186 98.6085 27.8656 98.8819 26.9551L99.8871 23.5801H101.17L102.133 26.8831C102.366 27.6886 102.555 28.4641 102.701 29.2111H102.745C102.851 28.4836 103.012 27.7081 103.225 26.8831L104.085 23.5801H105.631V23.5786Z" fill="white"/>
<path fill-rule="evenodd" clip-rule="evenodd" d="M93.8278 27.0556C93.8278 28.1431 93.5168 29.0341 92.8948 29.7331C92.2428 30.4516 91.3789 30.8101 90.3001 30.8101C89.2604 30.8101 88.4326 30.4666 87.8151 29.7766C87.1991 29.0881 86.8911 28.2196 86.8911 27.1726C86.8911 26.0776 87.2081 25.1791 87.8452 24.4816C88.4822 23.7841 89.3386 23.4346 90.4173 23.4346C91.457 23.4346 92.2923 23.7781 92.9249 24.4666C93.5258 25.1356 93.8278 25.9996 93.8278 27.0556ZM92.1947 27.1066C92.1947 26.4541 92.0535 25.8946 91.7725 25.4281C91.442 24.8641 90.9717 24.5821 90.3602 24.5821C89.7277 24.5821 89.2469 24.8641 88.9164 25.4281C88.6339 25.8946 88.4942 26.4631 88.4942 27.1351C88.4942 27.7876 88.6354 28.3471 88.9164 28.8136C89.2574 29.3776 89.7322 29.6596 90.3452 29.6596C90.9462 29.6596 91.4179 29.3731 91.7575 28.7986C92.0489 28.3231 92.1947 27.7591 92.1947 27.1066Z" fill="white"/>
<path fill-rule="evenodd" clip-rule="evenodd" d="M85.0251 25.5135C85.0251 27.279 84.4947 28.608 83.4355 29.5005C82.4544 30.324 81.0602 30.7365 79.2543 30.7365C78.3588 30.7365 77.5926 30.6975 76.951 30.6195V20.973C77.7879 20.838 78.6894 20.769 79.6629 20.769C81.3832 20.769 82.6798 21.1425 83.5542 21.8895C84.5338 22.734 85.0251 23.9415 85.0251 25.5135ZM83.3649 25.557C83.3649 24.4125 83.0614 23.535 82.4544 22.923C81.8475 22.3125 80.961 22.0065 79.7936 22.0065C79.2978 22.0065 78.8757 22.0395 78.5256 22.1085V29.442C78.7194 29.472 79.074 29.4855 79.5893 29.4855C80.7943 29.4855 81.7243 29.151 82.3793 28.482C83.0344 27.813 83.3649 26.838 83.3649 25.557Z" fill="white"/>
</svg>
