<svg width="224" height="81" viewBox="0 0 224 81" fill="none" xmlns="http://www.w3.org/2000/svg">
<path fill-rule="evenodd" clip-rule="evenodd" d="M0.19043 6.51504C0.19043 3.19303 2.88345 0.5 6.20547 0.5H217.985C221.307 0.5 224 3.19302 224 6.51504V74.485C224 77.807 221.307 80.5 217.985 80.5H6.20546C2.88345 80.5 0.19043 77.807 0.19043 74.485V6.51504Z" fill="black"/>
<path fill-rule="evenodd" clip-rule="evenodd" d="M171.995 56.7498H174.798V37.9983H171.995V56.7498ZM197.247 44.7528L194.032 52.8828H193.935L190.601 44.7528H187.58L192.582 56.1153L189.731 62.4363H192.655L200.363 44.7528H197.247ZM181.346 54.6198C180.428 54.6198 179.146 54.1623 179.146 53.0268C179.146 51.5808 180.742 51.0258 182.12 51.0258C183.352 51.0258 183.932 51.2913 184.68 51.6528C184.464 53.3898 182.964 54.6198 181.346 54.6198ZM181.684 44.3433C179.654 44.3433 177.552 45.2358 176.682 47.2143L179.17 48.2508C179.702 47.2143 180.694 46.8753 181.732 46.8753C183.182 46.8753 184.656 47.7438 184.68 49.2888V49.4808C184.172 49.1913 183.086 48.7578 181.756 48.7578C179.074 48.7578 176.344 50.2293 176.344 52.9788C176.344 55.4883 178.542 57.1053 181.008 57.1053C182.892 57.1053 183.932 56.2608 184.584 55.2708H184.68V56.7183H187.388V49.5288C187.388 46.2003 184.898 44.3433 181.684 44.3433ZM164.358 47.0358H160.371V40.6083H164.358C166.453 40.6083 167.645 42.3408 167.645 43.8213C167.645 45.2748 166.453 47.0358 164.358 47.0358ZM164.285 37.9983H157.568V56.7498H160.371V49.6458H164.285C167.393 49.6458 170.447 47.3988 170.447 43.8213C170.447 40.2438 167.393 37.9983 164.285 37.9983ZM127.653 54.6228C125.717 54.6228 124.096 53.0043 124.096 50.7813C124.096 48.5343 125.717 46.8903 127.653 46.8903C129.566 46.8903 131.067 48.5343 131.067 50.7813C131.067 53.0043 129.566 54.6228 127.653 54.6228ZM130.873 45.8028H130.776C130.146 45.0543 128.937 44.3778 127.412 44.3778C124.216 44.3778 121.287 47.1798 121.287 50.7813C121.287 54.3573 124.216 57.1368 127.412 57.1368C128.937 57.1368 130.146 56.4603 130.776 55.6863H130.873V56.6058C130.873 59.0463 129.566 60.3513 127.46 60.3513C125.741 60.3513 124.675 59.1183 124.241 58.0788L121.795 59.0943C122.497 60.7863 124.361 62.8638 127.46 62.8638C130.752 62.8638 133.536 60.9303 133.536 56.2188V44.7633H130.873V45.8028ZM135.472 56.7498H138.28V37.9968H135.472V56.7498ZM142.42 50.5638C142.346 48.0993 144.331 46.8423 145.76 46.8423C146.873 46.8423 147.817 47.3973 148.132 48.1953L142.42 50.5638ZM151.133 48.4368C150.601 47.0118 148.978 44.3778 145.662 44.3778C142.37 44.3778 139.636 46.9623 139.636 50.7573C139.636 54.3333 142.346 57.1368 145.978 57.1368C148.906 57.1368 150.601 55.3488 151.302 54.3093L149.124 52.8588C148.398 53.9223 147.405 54.6228 145.978 54.6228C144.549 54.6228 143.532 53.9703 142.88 52.6908L151.424 49.1613L151.133 48.4368ZM83.0583 46.3353V49.0413H89.546C89.3522 50.5638 88.8428 51.6753 88.069 52.4478C87.124 53.3913 85.6486 54.4308 83.0583 54.4308C79.0647 54.4308 75.9425 51.2163 75.9425 47.2293C75.9425 43.2408 79.0647 40.0278 83.0583 40.0278C85.2128 40.0278 86.7859 40.8738 87.9473 41.9613L89.86 40.0518C88.2388 38.5053 86.0843 37.3203 83.0583 37.3203C77.5877 37.3203 72.9886 41.7678 72.9886 47.2293C72.9886 52.6908 77.5877 57.1368 83.0583 57.1368C86.0106 57.1368 88.2388 56.1693 89.9817 54.3573C91.7727 52.5693 92.3286 50.0568 92.3286 48.0258C92.3286 47.3973 92.2805 46.8183 92.1843 46.3353H83.0583ZM99.7043 54.6228C97.7676 54.6228 96.0968 53.0283 96.0968 50.7573C96.0968 48.4608 97.7676 46.8903 99.7043 46.8903C101.641 46.8903 103.31 48.4608 103.31 50.7573C103.31 53.0283 101.641 54.6228 99.7043 54.6228ZM99.7043 44.3778C96.1704 44.3778 93.2887 47.0598 93.2887 50.7573C93.2887 54.4308 96.1704 57.1368 99.7043 57.1368C103.238 57.1368 106.118 54.4308 106.118 50.7573C106.118 47.0598 103.238 44.3778 99.7043 44.3778ZM113.697 54.6228C111.76 54.6228 110.091 53.0283 110.091 50.7573C110.091 48.4608 111.76 46.8903 113.697 46.8903C115.634 46.8903 117.303 48.4608 117.303 50.7573C117.303 53.0283 115.634 54.6228 113.697 54.6228ZM113.697 44.3778C110.163 44.3778 107.283 47.0598 107.283 50.7573C107.283 54.4308 110.163 57.1368 113.697 57.1368C117.231 57.1368 120.111 54.4308 120.111 50.7573C120.111 47.0598 117.231 44.3778 113.697 44.3778Z" fill="white"/>
<path fill-rule="evenodd" clip-rule="evenodd" d="M131.133 21.7075V27.2936L131.168 28.5981L126.927 21.7075H125.262V31.2907H126.738V25.3553L126.703 24.0523L131.149 31.2907H132.612V21.7075H131.133Z" fill="white"/>
<path fill-rule="evenodd" clip-rule="evenodd" d="M122.414 26.4992C122.414 27.5301 122.086 28.3895 121.44 29.0526C120.798 29.7142 119.999 30.0496 119.067 30.0496C118.135 30.0496 117.337 29.7142 116.692 29.0526C116.048 28.3895 115.72 27.5301 115.72 26.4992C115.72 25.4682 116.048 24.6088 116.692 23.9457C117.337 23.2842 118.135 22.9503 119.067 22.9503C119.999 22.9503 120.798 23.2842 121.44 23.9457C122.086 24.6088 122.414 25.4682 122.414 26.4992ZM119.067 21.5005C117.693 21.5005 116.531 21.9889 115.608 22.9534C114.686 23.9148 114.219 25.1065 114.219 26.4992C114.219 27.8918 114.686 29.0851 115.608 30.0449C116.529 31.0094 117.693 31.4963 119.067 31.4963C120.44 31.4963 121.605 31.0094 122.527 30.0449C123.45 29.0835 123.916 27.8903 123.916 26.4992C123.916 25.1158 123.448 23.9256 122.52 22.9581C121.593 21.9905 120.43 21.5005 119.067 21.5005Z" fill="white"/>
<path fill-rule="evenodd" clip-rule="evenodd" d="M104.096 23.1563H106.649V31.2896H108.126V23.1563H110.679V21.708H104.096V23.1563Z" fill="white"/>
<path fill-rule="evenodd" clip-rule="evenodd" d="M101.44 31.2897H102.919V21.7065H101.44V31.2897Z" fill="white"/>
<path fill-rule="evenodd" clip-rule="evenodd" d="M90.6151 23.1563H93.1682V31.2896H94.6473V23.1563H97.2003V21.708H90.6151V23.1563Z" fill="white"/>
<path fill-rule="evenodd" clip-rule="evenodd" d="M84.0548 31.2902H89.6956V29.8419H85.5339V27.2112H89.2873V25.7876H85.5339V23.1569H89.6956V21.707H84.0548V31.2902Z" fill="white"/>
<path fill-rule="evenodd" clip-rule="evenodd" d="M82.585 26.0206H77.8765V27.4441H81.179C81.0937 28.1258 80.8576 28.6683 80.4737 29.0594C79.8248 29.7163 79.0022 30.0486 78.0289 30.0486C77.1118 30.0486 76.3075 29.7178 75.6388 29.0625C74.9701 28.4086 74.6319 27.5462 74.6319 26.4997C74.6319 25.4518 74.9701 24.5893 75.6388 23.9355C76.3075 23.2817 77.1118 22.9493 78.0289 22.9493C79.054 22.9493 79.834 23.2909 80.4143 23.9942L80.5225 24.1241L81.54 23.0885L81.4517 22.9803C81.0815 22.5336 80.5819 22.1703 79.965 21.9014C79.3526 21.6355 78.7021 21.4995 78.0289 21.4995C76.6746 21.4995 75.5063 21.9833 74.5588 22.937C73.6098 23.8907 73.1284 25.0886 73.1284 26.4997C73.1284 27.9094 73.6098 29.1073 74.5588 30.061C75.5063 31.0131 76.6731 31.4969 78.0289 31.4969C79.444 31.4969 80.6108 31.0193 81.4943 30.0795C82.2773 29.2835 82.6749 28.2062 82.6749 26.8753C82.6749 26.6404 82.652 26.3946 82.6079 26.1489L82.585 26.0206Z" fill="white"/>
<path fill-rule="evenodd" clip-rule="evenodd" d="M26.864 23.0968C26.4268 23.5573 26.1683 24.2743 26.1683 25.2043V58.3768C26.1683 59.3068 26.4268 60.0223 26.864 60.4843L26.9737 60.5923L45.5894 42.0103V41.7913V41.5708L26.9737 22.9873L26.864 23.0968Z" fill="url(#paint0_linear)"/>
<path fill-rule="evenodd" clip-rule="evenodd" d="M45.5894 41.571V41.7915V42.0105L51.7931 48.207L51.9358 48.1275L59.286 43.956C61.3864 42.7665 61.3864 40.8165 59.286 39.6255L51.9358 35.4555L51.7946 35.376L45.5894 41.571Z" fill="url(#paint1_linear)"/>
<path fill-rule="evenodd" clip-rule="evenodd" d="M26.864 60.4845C27.5552 61.2165 28.6985 61.3065 29.9862 60.5775L51.9359 48.1275L45.5894 41.7915L26.864 60.4845Z" fill="url(#paint2_linear)"/>
<path fill-rule="evenodd" clip-rule="evenodd" d="M26.864 23.097L45.5894 41.7915L51.9359 35.454L29.9862 23.004C29.3822 22.662 28.8097 22.5 28.3019 22.5C27.7264 22.5 27.2306 22.7085 26.864 23.097Z" fill="url(#paint3_linear)"/>
<defs>
<linearGradient id="paint0_linear" x1="37.4555" y1="0.284694" x2="7.58358" y2="8.24519" gradientUnits="userSpaceOnUse">
<stop stop-color="#00A1FF"/>
<stop offset="0.2601" stop-color="#00BEFF"/>
<stop offset="0.5122" stop-color="#00D2FF"/>
<stop offset="0.7604" stop-color="#00DFFF"/>
<stop offset="1" stop-color="#00E3FF"/>
</linearGradient>
<linearGradient id="paint1_linear" x1="62.0828" y1="26.4376" x2="25.6755" y2="26.4376" gradientUnits="userSpaceOnUse">
<stop stop-color="#FFE000"/>
<stop offset="0.4087" stop-color="#FFBD00"/>
<stop offset="0.7754" stop-color="#FFA500"/>
<stop offset="1" stop-color="#FF9C00"/>
</linearGradient>
<linearGradient id="paint2_linear" x1="26.2355" y1="31.9709" x2="2.24243" y2="72.4507" gradientUnits="userSpaceOnUse">
<stop stop-color="#FF3A44"/>
<stop offset="1" stop-color="#C31162"/>
</linearGradient>
<linearGradient id="paint3_linear" x1="12.2144" y1="18.0563" x2="22.9565" y2="35.9812" gradientUnits="userSpaceOnUse">
<stop stop-color="#32A071"/>
<stop offset="0.0685" stop-color="#2DA771"/>
<stop offset="0.4762" stop-color="#15CF74"/>
<stop offset="0.8009" stop-color="#06E775"/>
<stop offset="1" stop-color="#00F076"/>
</linearGradient>
</defs>
</svg>
