<svg width="107" height="46" viewBox="0 0 107 46" fill="none" xmlns="http://www.w3.org/2000/svg">
<path fill-rule="evenodd" clip-rule="evenodd" d="M96.0932 43.905L96.4846 43.2308C96.5716 43.0786 96.7565 43.0786 96.8543 43.1547C96.859 43.1575 96.8698 43.1648 96.8861 43.1758C97.0588 43.2929 97.8502 43.8289 98.4961 43.8289C99.0615 43.8289 99.4855 43.4591 99.4855 42.9917C99.4855 42.4371 99.018 42.0566 98.1047 41.6869C97.0827 41.2736 96.0606 40.6213 96.0606 39.3383C96.0606 38.3706 96.7782 37.2507 98.507 37.2507C99.6161 37.2507 100.464 37.816 100.682 37.9791C100.79 38.0443 100.823 38.2292 100.747 38.3379L100.334 38.9576C100.247 39.0881 100.084 39.1752 99.9531 39.0881L99.9357 39.0771C99.7877 38.9832 99.0113 38.4902 98.4418 38.4902C97.822 38.4902 97.485 38.9034 97.485 39.2513C97.485 39.7623 97.8872 40.1102 98.768 40.469C99.8227 40.8931 101.04 41.5238 101.04 42.9263C101.04 44.0463 100.073 45.0792 98.5397 45.0792C97.1696 45.0792 96.365 44.4377 96.1476 44.2312C96.0497 44.1334 95.9953 44.079 96.0932 43.905ZM91.6514 38.6642H89.9878C89.8683 38.6642 89.7813 38.5663 89.7813 38.4576V37.566C89.7813 37.4573 89.8683 37.3594 89.9878 37.3594H94.7394C94.859 37.3594 94.9459 37.4573 94.9459 37.566V38.4576C94.9459 38.5663 94.859 38.6642 94.7394 38.6642H93.0759V44.764C93.0759 44.8727 92.978 44.9706 92.8693 44.9706H91.858C91.7493 44.9706 91.6514 44.8727 91.6514 44.764V38.6642ZM86.9517 37.566C86.9517 37.4573 87.0497 37.3594 87.1583 37.3594H88.1695C88.2783 37.3594 88.3762 37.4573 88.3762 37.566V44.764C88.3762 44.8727 88.2783 44.9706 88.1695 44.9706H87.1583C87.0497 44.9706 86.9517 44.8727 86.9517 44.764V37.566ZM80.5814 37.566C80.5814 37.4573 80.6684 37.3594 80.788 37.3594H85.2133C85.3329 37.3594 85.4199 37.4573 85.4199 37.566V38.4576C85.4199 38.5663 85.3329 38.6642 85.2133 38.6642H81.995V40.7084H84.6805C84.7893 40.7084 84.8871 40.8062 84.8871 40.9148V41.8065C84.8871 41.9153 84.7893 42.0132 84.6805 42.0132H81.995V44.764C81.995 44.8727 81.8971 44.9706 81.7883 44.9706H80.788C80.6684 44.9706 80.5814 44.8727 80.5814 44.764V37.566ZM73.8211 37.566C73.8211 37.4573 73.9081 37.3594 74.0276 37.3594H78.4529C78.5726 37.3594 78.6596 37.4573 78.6596 37.566V38.4576C78.6596 38.5663 78.5726 38.6642 78.4529 38.6642H75.2346V40.4474H77.9201C78.0289 40.4474 78.1268 40.5453 78.1268 40.654V41.5565C78.1268 41.676 78.0289 41.763 77.9201 41.763H75.2346V43.6658H78.4529C78.5726 43.6658 78.6596 43.7636 78.6596 43.8724V44.764C78.6596 44.8727 78.5726 44.9706 78.4529 44.9706H74.0276C73.9081 44.9706 73.8211 44.8727 73.8211 44.764V37.566ZM65.0941 37.4463C65.0941 37.3376 65.1919 37.2507 65.3008 37.2507H65.5726L70.0957 42.0566H70.1066V37.5659C70.1066 37.4572 70.1935 37.3594 70.3132 37.3594H71.3135C71.4223 37.3594 71.5202 37.4572 71.5202 37.5659V44.8836C71.5202 44.9922 71.4223 45.0792 71.3135 45.0792H71.0525L66.5076 40.0885H66.4967V44.7639C66.4967 44.8726 66.4098 44.9705 66.2901 44.9705H65.3008C65.1919 44.9705 65.0941 44.8726 65.0941 44.7639V37.4463ZM58.3338 37.566C58.3338 37.4573 58.4208 37.3594 58.5404 37.3594H62.9657C63.0853 37.3594 63.1724 37.4573 63.1724 37.566V38.4576C63.1724 38.5663 63.0853 38.6642 62.9657 38.6642H59.7473V40.4474H62.4329C62.5417 40.4474 62.6396 40.5453 62.6396 40.654V41.5565C62.6396 41.676 62.5417 41.763 62.4329 41.763H59.7473V43.6658H62.9657C63.0853 43.6658 63.1724 43.7636 63.1724 43.8724V44.764C63.1724 44.8727 63.0853 44.9706 62.9657 44.9706H58.5404C58.4208 44.9706 58.3338 44.8727 58.3338 44.764V37.566ZM53.9628 43.6875C54.5065 43.6875 54.9414 43.2634 54.9414 42.6981C54.9414 42.1544 54.3977 41.752 53.8324 41.752H52.6471V43.6875H53.9628ZM53.8106 40.5561C54.3651 40.5561 54.7456 40.1212 54.7456 39.5774C54.7456 39.0339 54.3651 38.6533 53.8106 38.6533H52.6471V40.5561H53.8106ZM51.2446 37.566C51.2446 37.4573 51.3315 37.3594 51.4512 37.3594H53.9411C55.2349 37.3594 56.2353 38.2293 56.2353 39.371C56.2353 40.2081 55.5502 40.8605 55.0393 41.0997C55.6156 41.2846 56.4528 41.8717 56.4528 42.8721C56.4528 44.0899 55.409 44.9706 54.0824 44.9706H51.4512C51.3315 44.9706 51.2446 44.8727 51.2446 44.764V37.566ZM93.7492 17.9396C94.3642 17.9396 94.8032 17.7244 94.8032 16.7559C94.8032 12.5036 93.2222 11.0504 88.6539 11.0504C84.1298 11.0504 82.5046 12.3964 82.5046 16.7559C82.5046 17.7244 82.9437 17.9396 83.5587 17.9396H93.7492ZM76.2234 19.3391C76.2234 12.2349 78.0683 8.19773 88.6978 8.19773C96.4281 8.19773 100.996 10.4587 101.04 17.9395C101.04 20.1461 100.777 20.8459 97.7021 20.8459H83.3832C82.8121 20.8459 82.3727 21.0074 82.3727 22.0303C82.3727 26.8736 86.1942 27.0351 90.8059 27.0351C93.5295 27.0351 97.1751 26.5513 97.8338 26.4433C98.8442 26.2818 99.2392 26.3354 99.2392 27.8429C99.2392 29.2417 99.0638 29.4576 97.9657 29.6727C97.5266 29.7799 94.232 30.3725 89.8839 30.3725C79.342 30.3725 76.2234 27.3046 76.2234 19.3391ZM58.1742 29.8878C56.3292 29.8878 55.7146 29.5648 54.9677 27.5734L48.6868 11.4272C47.8523 9.32858 48.2913 8.73601 51.2344 8.73601C53.9576 8.73601 54.1771 9.05902 54.9677 11.1585L60.5898 26.1202C60.8973 26.9815 61.2928 27.0352 62.0394 27.0352H62.3908C63.1374 27.0352 63.5329 26.9815 63.8405 26.1202L69.3307 10.405C69.8141 9.00547 70.4288 8.73601 72.1859 8.73601C73.5914 8.73601 74.0309 9.11267 73.5474 10.405L67.0466 27.5734C66.3 29.6192 65.6852 29.8878 63.8405 29.8878H58.1742ZM43.9011 27.1967C43.9011 29.2417 43.6376 29.8878 41.2219 29.8878H40.7385C38.1472 29.8878 37.9713 29.0809 37.9713 27.1967V11.4807C37.9713 9.38213 38.2349 8.73601 40.6509 8.73601H41.134C43.6816 8.73601 43.9011 9.65084 43.9011 11.4807V27.1967ZM42.0125 4.96908H39.7724C37.5323 4.96908 37.0928 4.91478 37.0928 2.49309C37.0928 0.0713895 37.5323 0.0170898 39.7724 0.0170898H42.0125C44.2965 0.0170898 44.7796 0.0713895 44.7796 2.49309C44.7796 4.91478 44.2965 4.96908 42.0125 4.96908ZM14.346 29.8878C12.1939 29.8878 11.4909 29.5113 10.5687 27.2502L1.21287 2.9777C0.334324 0.609662 0.861326 0.0170898 4.11187 0.0170898C7.09864 0.0170898 7.49365 0.609662 8.28464 2.70824L16.5861 25.3133C16.9375 26.2818 17.3766 26.4433 18.2551 26.4433H18.6946C19.5727 26.4433 20.0122 26.3354 20.3636 25.3133L28.5335 2.11642C29.1921 0.393752 29.5876 0.0170898 31.6082 0.0170898C33.2773 0.0170898 33.8043 0.555255 33.1893 2.06276L23.9653 27.2502C23.0868 29.5113 22.2963 29.8878 20.1437 29.8878H14.346ZM101.147 9.25975H101.803V11.2288H102.353V9.25975H103.018V8.79842H101.147V9.25975ZM105.36 8.79842H106.079L106.209 11.2288H105.675L105.637 10.2992C105.626 10.0046 105.615 9.65423 105.616 9.29806H105.606C105.529 9.60905 105.427 9.95438 105.335 10.2413L105.038 11.1888H104.611L104.349 10.2497C104.27 9.96361 104.19 9.61839 104.13 9.29806H104.122L104.12 9.35869C104.108 9.67384 104.095 10.0221 104.081 10.3065L104.036 11.2288H103.528L103.683 8.79842H104.416L104.653 9.61056C104.73 9.88925 104.805 10.1948 104.859 10.4796H104.871C104.937 10.1983 105.02 9.87755 105.102 9.60691L105.36 8.79842Z" fill="white"/>
</svg>
